<svg 
                  class="svg_logo"
                  version="1.1" 
                  id="logo_svg" 
                  xmlns="http://www.w3.org/2000/svg" 
                  xmlns:xlink="http://www.w3.org/1999/xlink" 
                  x="0px" 
                  y="0px"

                  viewBox="0 0 732 732" 
                  style="enable-background:new 0 0 732 732;" 
                  xml:space="preserve">

                 <path 
                  class="up"
                  d="M114.35,441.222c-7.145-23.841-11.003-49.087-11.003-75.222
                    c0-144.828,117.826-262.653,262.653-262.653c87.16,0,164.525,42.686,212.329,108.239l-125.715,0.72l-86.406,118.76l-86.406-118.76
                    h-77.136v230.882v0.372c-5.53,3.343-9.06,9.661-8.359,16.738c0.81,8.176,7.423,14.79,15.599,15.599
                    c11.049,1.094,20.259-8.115,19.164-19.164c-0.534-5.394-3.603-10.096-7.972-12.912v-0.736V230.739h49.32l95.79,131.657
                    l95.79-131.657h48.904h80.163h21.394c-3.617-6.589-7.498-13.016-11.628-19.281c-10.437-15.832-22.478-30.618-36.074-44.215
                    c-25.812-25.811-55.871-46.077-89.344-60.235C440.754,92.348,403.942,84.915,366,84.915c-37.942,0-74.754,7.433-109.414,22.093
                    c-33.473,14.158-63.532,34.424-89.343,60.235c-25.812,25.812-46.077,55.871-60.235,89.344C92.348,291.246,84.915,328.058,84.915,366
                    c0,28.417,4.197,56.194,12.453,82.912c-2.119,3.213-3.209,7.164-2.791,11.386c0.81,8.176,7.423,14.79,15.599,15.599
                    c11.049,1.094,20.259-8.115,19.164-19.164C128.551,448.763,122.242,442.294,114.35,441.222z"
                  />

                 <path 
                  class="down"
                  d="M633.802,280.462c1.509-2.898,2.234-6.27,1.881-9.837c-0.81-8.176-7.423-14.789-15.599-15.599
                    c-11.049-1.094-20.258,8.115-19.164,19.164c0.81,8.176,7.423,14.79,15.599,15.599c0.287,0.028,0.571,0.046,0.855,0.06
                    c7.324,24.113,11.279,49.676,11.279,76.15c0,144.828-117.825,262.653-262.653,262.653c-78.506,0-149.063-34.634-197.232-89.413
                    h107.238v-18.432V396.224V328.08l78.867,107.869h20.102l81.018-108.024v192.884h73.341V287.466
                    c4.954-3.083,8.248-8.574,8.248-14.839c0-0.588-0.023-1.182-0.083-1.783c-0.81-8.176-7.423-14.789-15.599-15.599
                    c-10.448-1.035-19.246,7.146-19.247,17.382c0,0.588,0.023,1.182,0.083,1.782c0.542,5.474,3.693,10.238,8.166,13.038v214.928h-36.477
                    V272.627L365.759,417.516h-1.529L257.574,271.64v124.584v106.152v18.432h-93.242h-10.373h-9.018h-13.598
                    c10.396,15.732,22.379,30.428,35.9,43.949c25.811,25.812,55.871,46.078,89.343,60.235c34.66,14.66,71.472,22.093,109.414,22.093
                    c37.942,0,74.754-7.433,109.413-22.093c33.473-14.157,63.532-34.423,89.344-60.235s46.078-55.871,60.235-89.344
                    c14.66-34.659,22.093-71.472,22.093-109.414C647.085,336.65,642.605,307.985,633.802,280.462z"
                  />
             </svg>